<svg width="30" height="30" viewBox="0 0 30 30" fill="none" xmlns="http://www.w3.org/2000/svg">
<g clip-path="url(#clip0_223_2609)">
<path d="M19.9211 1.1546C19.9211 0.517494 20.5509 0 21.3295 0C22.1082 0 22.738 0.517494 22.738 1.1546V6.21237C22.738 6.84947 22.1082 7.36697 21.3295 7.36697C20.5509 7.36697 19.9211 6.84947 19.9211 6.21237V1.1546ZM16.1375 25.7917C15.9422 25.7917 15.9422 23.3263 16.1375 23.3263H19.9919C20.1871 23.3263 20.1871 25.7917 19.9919 25.7917H16.1375ZM3.869 16.8283C3.67372 16.8283 3.67372 14.3629 3.869 14.3629H7.72335C7.91863 14.3629 7.91863 16.8283 7.72335 16.8283H3.869ZM10.0033 16.8283C9.80797 16.8283 9.80797 14.3629 10.0033 14.3629H13.8576C14.0529 14.3629 14.0529 16.8283 13.8576 16.8283H10.0033ZM16.1375 16.8283C15.9422 16.8283 15.9422 14.3629 16.1375 14.3629H19.9919C20.1871 14.3629 20.1871 16.8283 19.9919 16.8283H16.1375ZM22.2742 14.3629H26.1188C26.3141 14.3629 26.3141 16.8283 26.1188 16.8283H22.2742C22.0789 16.8283 22.0789 14.3629 22.2742 14.3629ZM3.869 21.31C3.67372 21.31 3.67372 18.8446 3.869 18.8446H7.72335C7.91863 18.8446 7.91863 21.31 7.72335 21.31H3.869ZM10.0081 21.31C9.81286 21.31 9.81286 18.8446 10.0081 18.8446H13.8576C14.0529 18.8446 14.0529 21.31 13.8576 21.31H10.0081ZM16.1424 21.31C15.9471 21.31 15.9471 18.8446 16.1424 18.8446H19.9919C20.1871 18.8446 20.1871 21.31 19.9919 21.31H16.1424ZM22.2791 21.31C22.0838 21.31 22.0838 18.8446 22.2791 18.8446H26.1188C26.3141 18.8446 26.3141 21.31 26.1188 21.31H22.2791ZM3.87388 25.7917C3.6786 25.7917 3.6786 23.3263 3.87388 23.3263H7.72335C7.91863 23.3263 7.91863 25.7917 7.72335 25.7917H3.87388ZM10.0081 25.7917C9.81286 25.7917 9.81286 23.3263 10.0081 23.3263H13.8576C14.0529 23.3263 14.0529 25.7917 13.8576 25.7917H10.0081ZM7.22783 1.1546C7.22783 0.517494 7.85761 0 8.63629 0C9.41497 0 10.0448 0.517494 10.0448 1.1546V6.21237C10.0448 6.84947 9.41497 7.36697 8.63629 7.36697C7.85761 7.36697 7.22783 6.84947 7.22783 6.21237V1.1546ZM1.56225 10.6111H28.4304V5.24085C28.4284 5.05162 28.3531 4.87054 28.2205 4.73556C28.1543 4.66901 28.0755 4.6162 27.9888 4.58018C27.9021 4.54415 27.8091 4.52561 27.7152 4.52563H25.1424C24.9352 4.52563 24.7365 4.44333 24.5901 4.29684C24.4436 4.15036 24.3613 3.95167 24.3613 3.74451C24.3613 3.53734 24.4436 3.33866 24.5901 3.19217C24.7365 3.04568 24.9352 2.96339 25.1424 2.96339H27.7177C28.3211 2.96532 28.8992 3.20588 29.3259 3.63257C29.7526 4.05926 29.9932 4.63742 29.9951 5.24085V27.7201C29.9932 28.3235 29.7526 28.9017 29.3259 29.3284C28.8992 29.7551 28.3211 29.9956 27.7177 29.9976H2.27746C1.67361 29.9956 1.09509 29.7547 0.668328 29.3275C0.241569 28.9003 0.00128718 28.3215 0 27.7177L0 5.24085C0.00193098 4.63742 0.242497 4.05926 0.669186 3.63257C1.09588 3.20588 1.67403 2.96532 2.27746 2.96339H5.02848C5.13106 2.96339 5.23263 2.98359 5.3274 3.02284C5.42217 3.0621 5.50828 3.11964 5.58082 3.19217C5.65335 3.2647 5.71089 3.35081 5.75014 3.44559C5.7894 3.54036 5.8096 3.64193 5.8096 3.74451C5.8096 3.84709 5.7894 3.94866 5.75014 4.04343C5.71089 4.1382 5.65335 4.22431 5.58082 4.29684C5.50828 4.36938 5.42217 4.42692 5.3274 4.46617C5.23263 4.50543 5.13106 4.52563 5.02848 4.52563H2.27746C2.08823 4.52769 1.90715 4.60292 1.77217 4.73556C1.70562 4.8018 1.65282 4.88054 1.61679 4.96726C1.58077 5.05397 1.56223 5.14695 1.56225 5.24085V10.6111ZM28.4329 12.1758H1.56225V27.7177C1.56431 27.9069 1.63954 28.088 1.77217 28.2229C1.83842 28.2895 1.91716 28.3423 2.00387 28.3783C2.09058 28.4144 2.18356 28.4329 2.27746 28.4329H27.7177C27.9069 28.4308 28.088 28.3556 28.2229 28.2229C28.2895 28.1567 28.3423 28.078 28.3783 27.9912C28.4144 27.9045 28.4329 27.8116 28.4329 27.7177V12.1758ZM12.31 4.52563C12.1028 4.52563 11.9042 4.44333 11.7577 4.29684C11.6112 4.15036 11.5289 3.95167 11.5289 3.74451C11.5289 3.53734 11.6112 3.33866 11.7577 3.19217C11.9042 3.04568 12.1028 2.96339 12.31 2.96339H17.5557C17.6583 2.96339 17.7599 2.98359 17.8547 3.02284C17.9494 3.0621 18.0355 3.11964 18.1081 3.19217C18.1806 3.2647 18.2381 3.35081 18.2774 3.44559C18.3167 3.54036 18.3369 3.64193 18.3369 3.74451C18.3369 3.84709 18.3167 3.94866 18.2774 4.04343C18.2381 4.1382 18.1806 4.22431 18.1081 4.29684C18.0355 4.36938 17.9494 4.42692 17.8547 4.46617C17.7599 4.50543 17.6583 4.52563 17.5557 4.52563H12.31Z" fill="#861449"/>
</g>
<defs>
<clipPath id="clip0_223_2609">
<rect width="29.9951" height="29.9976" fill="white"/>
</clipPath>
</defs>
</svg>
