<svg width="30" height="28" viewBox="0 0 30 28" fill="none" xmlns="http://www.w3.org/2000/svg">
<g clip-path="url(#clip0_223_2612)">
<path d="M8.71268 24.7053C8.61018 23.7089 8.25476 22.7552 7.68013 21.9348C7.12602 21.161 6.40592 20.6337 5.64921 20.6337C4.8925 20.6337 4.16996 21.161 3.61585 21.9348C3.04123 22.7552 2.6858 23.7089 2.5833 24.7053H8.71268ZM27.8477 6.73216C27.7098 6.52127 27.4985 6.36903 27.2548 6.30493C27.0111 6.24082 26.7523 6.26939 26.5284 6.38512C26.3046 6.50084 26.1316 6.69549 26.043 6.9314C25.9544 7.16731 25.9564 7.4277 26.0487 7.66219C26.0739 7.72159 26.1042 7.77875 26.139 7.83306C26.4791 8.35495 26.7731 8.90544 27.0178 9.4783C27.1173 9.70344 27.2951 9.88489 27.5181 9.98904C27.7411 10.0932 27.9944 10.113 28.2309 10.0448C28.4674 9.97657 28.6712 9.82496 28.8045 9.61803C28.9378 9.4111 28.9916 9.16287 28.956 8.91931C28.9415 8.83528 28.9169 8.75331 28.8827 8.67521C28.5942 8.00132 28.2479 7.35366 27.8477 6.73949V6.73216ZM26.1537 4.02752C26.198 4.29806 26.1424 4.57547 25.9974 4.80809C25.8523 5.04071 25.6277 5.21268 25.3652 5.29197L22.3457 6.21467C22.2031 6.25979 22.053 6.27618 21.9041 6.26287C21.7551 6.24957 21.6103 6.20684 21.478 6.13715C21.3457 6.06747 21.2285 5.97223 21.1333 5.85693C21.0381 5.74164 20.9667 5.6086 20.9232 5.46551C20.8798 5.32242 20.8652 5.17213 20.8802 5.02335C20.8953 4.87457 20.9397 4.73026 21.0109 4.59878C21.0822 4.4673 21.1788 4.35126 21.2952 4.25739C21.4116 4.16353 21.5455 4.09369 21.6891 4.05193L21.9698 3.96406C20.4626 3.14725 18.7916 2.67858 17.0795 2.59248C15.3674 2.50639 13.6578 2.80507 12.0763 3.46656C10.4948 4.12806 9.0816 5.13555 7.94066 6.41499C6.79972 7.69442 5.96 9.21328 5.48322 10.8599H3.37907C3.87187 8.83438 4.82685 6.95041 6.16924 5.35553C7.51162 3.76065 9.20496 2.49815 11.1167 1.66689C13.0284 0.835628 15.1066 0.45817 17.1885 0.564073C19.2704 0.669976 21.2996 1.25636 23.1171 2.27732L22.8339 1.54502C22.7261 1.26405 22.7344 0.951767 22.8568 0.676871C22.9793 0.401975 23.2059 0.186984 23.4869 0.0791924C23.7679 -0.028599 24.0801 -0.0203607 24.355 0.102095C24.6299 0.224551 24.8449 0.451192 24.9527 0.732162L26.0805 3.68334C26.1223 3.79451 26.1469 3.91139 26.1537 4.02997V4.02752ZM16.5019 25.5206C17.274 25.518 18.0443 25.4469 18.8038 25.3082C19.0588 25.299 19.3079 25.3858 19.5019 25.5515C19.6959 25.7172 19.8206 25.9497 19.8513 26.203C19.882 26.4563 19.8165 26.7118 19.6677 26.9191C19.5189 27.1263 19.2977 27.2702 19.0479 27.3221C18.4526 27.4349 17.851 27.5115 17.2464 27.5515C16.9267 27.5662 16.5141 27.5515 16.187 27.5515C15.2907 27.5322 14.3986 27.4234 13.5239 27.2269V25.1423C14.4913 25.4009 15.4884 25.5314 16.4897 25.5304L16.5019 25.5206ZM22.1773 24.056C22.055 24.1183 21.9466 24.2048 21.8586 24.31C21.7706 24.4153 21.7048 24.5373 21.6652 24.6687C21.6255 24.8001 21.6128 24.9381 21.6279 25.0745C21.643 25.2109 21.6854 25.3429 21.7528 25.4625C21.8202 25.582 21.911 25.6867 22.0198 25.7703C22.1287 25.8538 22.2533 25.9145 22.3862 25.9487C22.5192 25.9828 22.6576 25.9898 22.7933 25.9691C22.9289 25.9484 23.059 25.9004 23.1757 25.8282C23.8153 25.4667 24.4243 25.0536 24.9966 24.593C25.1804 24.4435 25.3062 24.2346 25.3524 24.0022C25.3987 23.7699 25.3624 23.5287 25.2499 23.3202C25.1375 23.1117 24.9558 22.949 24.7362 22.8601C24.5167 22.7712 24.273 22.7616 24.0471 22.8331C23.9278 22.8713 23.8168 22.9318 23.72 23.0112C23.2347 23.4004 22.7188 23.7498 22.1773 24.056ZM26.1854 20.2383C26.1147 20.3514 26.067 20.4774 26.045 20.609C26.023 20.7406 26.0272 20.8752 26.0572 21.0052C26.0872 21.1352 26.1426 21.258 26.2201 21.3666C26.2976 21.4752 26.3957 21.5675 26.5089 21.6382C26.7374 21.7809 27.0133 21.8271 27.2758 21.7664C27.5383 21.7057 27.766 21.5433 27.9088 21.3148C28.2988 20.6923 28.6376 20.0393 28.9218 19.3619C29.0148 19.1343 29.0223 18.8807 28.9429 18.648C28.8635 18.4152 28.7024 18.2191 28.4896 18.0959C28.2768 17.9727 28.0266 17.9307 27.7852 17.9776C27.5438 18.0246 27.3276 18.1573 27.1765 18.3514C27.1228 18.4209 27.0785 18.4973 27.0447 18.5784C26.8047 19.1538 26.5173 19.7082 26.1854 20.2358V20.2383ZM27.9259 14.9608C27.9091 15.2109 27.9851 15.4583 28.1394 15.6558C28.2938 15.8532 28.5155 15.9868 28.7622 16.031C29.0089 16.0751 29.2632 16.0267 29.4764 15.895C29.6896 15.7633 29.8468 15.5575 29.9177 15.3172C29.9372 15.2512 29.9495 15.1832 29.9543 15.1146C30.0132 14.3835 30.0132 13.6488 29.9543 12.9177C29.9433 12.7846 29.9061 12.6551 29.845 12.5364C29.7839 12.4178 29.7 12.3123 29.5981 12.226C29.3923 12.0518 29.1258 11.9665 28.8571 11.9889C28.5884 12.0112 28.3396 12.1394 28.1655 12.3451C27.9913 12.5509 27.906 12.8174 27.9283 13.0861C27.9783 13.7084 27.9783 14.3337 27.9283 14.9559L27.9259 14.9608ZM14.432 8.54339C14.4449 8.27472 14.5608 8.02135 14.7555 7.8358C14.9503 7.65025 15.2089 7.54674 15.4779 7.54674C15.7469 7.54674 16.0056 7.65025 16.2003 7.8358C16.3951 8.02135 16.5109 8.27472 16.5239 8.54339V14.912L20.8787 16.8282C21.01 16.8794 21.1296 16.9566 21.2302 17.0552C21.3309 17.1537 21.4106 17.2717 21.4645 17.4019C21.5184 17.5321 21.5455 17.6718 21.544 17.8128C21.5425 17.9537 21.5125 18.0928 21.4558 18.2218C21.3991 18.3509 21.3169 18.4671 21.2141 18.5635C21.1114 18.6599 20.9902 18.7346 20.8578 18.7829C20.7254 18.8313 20.5847 18.8524 20.4439 18.8449C20.3032 18.8374 20.1655 18.8016 20.039 18.7395L15.113 16.5743C14.9138 16.5 14.7419 16.3667 14.6202 16.1923C14.4986 16.0179 14.4329 15.8106 14.432 15.5979V8.54339ZM3.07395 17.2114H8.22447C8.48582 16.6748 8.65106 16.0964 8.71268 15.5027H2.57842C2.63893 16.0966 2.80422 16.6752 3.06662 17.2114H3.07395ZM0.603646 25.8331C0.52967 25.8477 0.453359 25.8458 0.380205 25.8275C0.307052 25.8092 0.238876 25.7748 0.180586 25.727C0.122295 25.6791 0.0753404 25.6189 0.0431012 25.5507C0.0108621 25.4826 -0.00585937 25.4081 -0.00585938 25.3327C-0.00585937 25.2572 0.0108621 25.1828 0.0431012 25.1146C0.0753404 25.0464 0.122295 24.9862 0.180586 24.9383C0.238876 24.8905 0.307052 24.8562 0.380205 24.8378C0.453359 24.8195 0.52967 24.8176 0.603646 24.8322H1.35548C1.44534 23.5654 1.87821 22.347 2.60771 21.3074C2.99789 20.7436 3.50596 20.2714 4.09673 19.9234C3.50676 19.6161 2.99235 19.1818 2.59063 18.6516C1.83822 17.6659 1.40626 16.4731 1.35304 15.2342H0.63782C0.563844 15.2489 0.487533 15.247 0.414379 15.2286C0.341226 15.2103 0.27305 15.176 0.21476 15.1281C0.156469 15.0802 0.109515 15.0201 0.0772754 14.9519C0.0450362 14.8837 0.0283147 14.8092 0.0283147 14.7338C0.0283147 14.6584 0.0450362 14.5839 0.0772754 14.5157C0.109515 14.4475 0.156469 14.3873 0.21476 14.3395C0.27305 14.2916 0.341226 14.2573 0.414379 14.2389C0.487533 14.2206 0.563844 14.2187 0.63782 14.2334H10.7241C10.798 14.2187 10.8744 14.2206 10.9475 14.2389C11.0207 14.2573 11.0888 14.2916 11.1471 14.3395C11.2054 14.3873 11.2524 14.4475 11.2846 14.5157C11.3169 14.5839 11.3336 14.6584 11.3336 14.7338C11.3336 14.8092 11.3169 14.8837 11.2846 14.9519C11.2524 15.0201 11.2054 15.0802 11.1471 15.1281C11.0888 15.176 11.0207 15.2103 10.9475 15.2286C10.8744 15.247 10.798 15.2489 10.7241 15.2342H9.94294C9.88972 16.4731 9.45776 17.6659 8.70535 18.6516C8.30363 19.1818 7.78922 19.6161 7.19925 19.9234C7.79002 20.2714 8.29809 20.7436 8.68827 21.3074C9.41777 22.347 9.85064 23.5654 9.9405 24.8322H10.6923C10.7663 24.8176 10.8426 24.8195 10.9158 24.8378C10.9889 24.8562 11.0571 24.8905 11.1154 24.9383C11.1737 24.9862 11.2206 25.0464 11.2529 25.1146C11.2851 25.1828 11.3018 25.2572 11.3018 25.3327C11.3018 25.4081 11.2851 25.4826 11.2529 25.5507C11.2206 25.6189 11.1737 25.6791 11.1154 25.727C11.0571 25.7748 10.9889 25.8092 10.9158 25.8275C10.8426 25.8458 10.7663 25.8477 10.6923 25.8331H0.603646Z" fill="#861449"/>
</g>
<defs>
<clipPath id="clip0_223_2612">
<rect width="29.9951" height="27.559" fill="white"/>
</clipPath>
</defs>
</svg>
