<svg width="31" height="28" viewBox="0 0 31 28" fill="none" xmlns="http://www.w3.org/2000/svg">
<path d="M28.7811 25.592C29.1039 25.8789 29.1039 26.1838 28.7811 26.5066L27.5976 27.6901C27.2748 28.0128 26.97 28.0128 26.6831 27.6901L20.1739 21.1808C20.0304 21.0374 19.9587 20.8939 19.9587 20.7505V19.9973C17.8427 21.8264 15.404 22.7409 12.6425 22.7409C9.55827 22.7409 6.92231 21.6471 4.73463 19.4594C2.54696 17.2717 1.45312 14.6357 1.45312 11.5515C1.45312 8.46722 2.54696 5.83126 4.73463 3.64358C6.92231 1.45591 9.55827 0.362076 12.6425 0.362076C15.7268 0.362076 18.3628 1.45591 20.5504 3.64358C22.7381 5.83126 23.8319 8.46722 23.8319 11.5515C23.8319 14.313 22.9174 16.7517 21.0884 18.8676H21.8415C22.0208 18.8676 22.1643 18.9394 22.2719 19.0828L28.7811 25.592ZM6.56367 17.6303C6.56367 17.6303 6.98507 18.0517 7.82786 18.8945C8.67065 19.7373 10.2755 20.1587 12.6425 20.1587C15.0095 20.1587 17.0358 19.3159 18.7214 17.6303C20.407 15.9448 21.2498 13.9185 21.2498 11.5515C21.2498 9.18449 20.407 7.15821 18.7214 5.47262C17.0358 3.78704 15.0095 2.94425 12.6425 2.94425C10.2755 2.94425 8.24926 3.78704 6.56367 5.47262C4.87809 7.15821 4.0353 9.18449 4.0353 11.5515C4.0353 13.9185 4.87809 15.9448 6.56367 17.6303Z" fill="#C0C0C0"/>
</svg>
