<svg width="30" height="30" viewBox="0 0 30 30" fill="none" xmlns="http://www.w3.org/2000/svg">
<path d="M14.9878 0C19.1375 0 22.8723 1.6843 25.5818 4.39382C28.2913 7.10334 29.9756 10.8625 29.9756 14.9878C29.9756 19.1375 28.2913 22.8723 25.5818 25.5818C22.8723 28.2913 19.1131 29.9756 14.9878 29.9756C10.8625 29.9756 7.10334 28.2913 4.39382 25.5818C1.6843 22.8967 0 19.1375 0 14.9878C0 10.8381 1.6843 7.10334 4.39382 4.39382C7.10334 1.6843 10.8625 0 14.9878 0ZM10.0814 13.2547C9.81286 13.2547 9.59317 13.3279 9.47112 13.4255C9.39788 13.4744 9.32465 13.5476 9.30024 13.6208C9.25142 13.7185 9.22701 13.8161 9.25142 13.9626C9.25142 14.3287 9.4467 14.8169 9.83727 15.3784L11.0578 17.3312C11.546 18.1123 12.0586 18.9178 12.7177 19.5037C13.3279 20.0651 14.0846 20.4557 15.061 20.4557C16.1351 20.4557 16.9162 20.0651 17.5509 19.4548C18.2099 18.8446 18.747 17.9902 19.2596 17.1359L20.6509 14.8657C20.9194 14.2799 20.9927 13.8893 20.9439 13.6452C20.9194 13.4988 20.7486 13.45 20.5045 13.4255C20.4557 13.4255 20.3824 13.4255 20.3336 13.4255C20.2604 13.4255 20.2116 13.4255 20.1383 13.4255C20.0895 13.4255 20.0651 13.4255 20.0407 13.4255C19.9186 13.4255 19.7966 13.4255 19.6501 13.4011L20.1139 11.3019C16.5989 11.8633 13.9626 9.25142 10.2522 10.7893L10.4963 13.2791C10.3499 13.2791 10.2034 13.2791 10.0814 13.2547ZM4.5891 23.3605C6.32221 22.7502 9.37348 22.4329 10.7893 21.4809C11.0334 21.1635 11.3019 20.773 11.546 20.4312C11.6924 20.2116 11.8145 20.0163 11.9365 19.8698C11.9609 19.8454 11.9854 19.821 12.0098 19.7966C11.4239 19.1863 10.9357 18.454 10.4719 17.7217L9.25142 15.7689C8.78763 15.0854 8.54353 14.4752 8.54353 13.987C8.54353 13.7429 8.56794 13.5232 8.66558 13.3523C8.76322 13.157 8.90968 12.9862 9.08055 12.8641C9.17819 12.8153 9.27583 12.7421 9.37348 12.7177C9.30024 11.668 9.27583 10.3255 9.32465 9.2026C9.34906 8.93409 9.39788 8.66558 9.47112 8.39707C9.78845 7.27421 10.5696 6.37103 11.546 5.76078C11.8877 5.54109 12.2539 5.37022 12.6688 5.22376C13.3767 4.95525 13.035 3.8812 13.8161 3.85679C15.6469 3.80797 18.6493 5.37022 19.821 6.63954C20.5045 7.37185 20.9439 8.34825 21.0171 9.64199L20.9439 12.8397C21.2856 12.9373 21.5053 13.157 21.6029 13.4988C21.7006 13.8893 21.6029 14.4264 21.2612 15.1831C21.2612 15.2075 21.2368 15.2075 21.2368 15.2319L19.8454 17.5264C19.3084 18.4052 18.747 19.3084 18.0146 19.9919L17.9902 20.0163C18.0879 20.1383 18.1855 20.2848 18.2832 20.4312C18.4784 20.6998 18.6737 21.0171 18.8934 21.31C20.1871 22.4085 23.6046 22.7502 25.4109 23.4093C27.2661 21.1147 28.3645 18.1855 28.3645 15.0122C28.3645 11.3263 26.8755 7.9821 24.4589 5.5655C22.0423 3.1489 18.6981 1.65989 15.0122 1.65989C11.3263 1.65989 7.9821 3.1489 5.5655 5.5655C3.1489 7.9821 1.65989 11.3263 1.65989 15.0122C1.63548 18.1611 2.73393 21.0659 4.5891 23.3605ZM18.7958 22.0911C18.454 21.7006 18.1123 21.188 17.795 20.7486C17.6973 20.6265 17.6241 20.4801 17.5264 20.3824C16.8674 20.8706 16.0618 21.188 15.0122 21.188C13.9138 21.188 13.0594 20.7974 12.3515 20.1871C12.3515 20.1871 12.3515 20.2116 12.3271 20.2116C12.205 20.3824 12.083 20.5533 11.9365 20.773C11.668 21.1635 11.3751 21.5785 11.1066 21.9447C11.131 24.4101 17.3556 25.8747 18.7958 22.0911Z" fill="#861449"/>
</svg>
